<svg xmlns="http://www.w3.org/2000/svg" width="23.818" height="19.345" viewBox="0 0 23.818 19.345">
  <path id="Icon_awesome-twitter" data-name="Icon awesome-twitter" d="M21.37,8.2c.015.212.015.423.015.635A13.794,13.794,0,0,1,7.5,22.725,13.8,13.8,0,0,1,0,20.534a10.1,10.1,0,0,0,1.179.06,9.776,9.776,0,0,0,6.06-2.086,4.89,4.89,0,0,1-4.564-3.385A6.156,6.156,0,0,0,3.6,15.2a5.163,5.163,0,0,0,1.285-.166A4.882,4.882,0,0,1,.967,10.242v-.06a4.916,4.916,0,0,0,2.206.62A4.889,4.889,0,0,1,1.662,4.272,13.876,13.876,0,0,0,11.728,9.381a5.511,5.511,0,0,1-.121-1.118,4.886,4.886,0,0,1,8.448-3.34,9.611,9.611,0,0,0,3.1-1.179,4.868,4.868,0,0,1-2.146,2.69,9.786,9.786,0,0,0,2.811-.756A10.493,10.493,0,0,1,21.37,8.2Z" transform="translate(0 -3.381)" fill="#fff"/>
</svg>
