<?xml version="1.0" encoding="UTF-8"?><svg id="Layer_2" xmlns="http://www.w3.org/2000/svg" viewBox="0 0 448 448"><defs><style>.cls-1{fill:#68cbdf;}</style></defs><g id="Layer_1-2"><path class="cls-1" d="M400,448H48c-26.51,0-48-21.49-48-48V48C0,21.49,21.49,0,48,0H400c26.51,0,48,21.49,48,48V400c0,26.51-21.49,48-48,48Zm-204.69-98.06l184-184c6.25-6.25,6.25-16.38,0-22.63l-22.63-22.63c-6.25-6.25-16.38-6.25-22.63,0l-150.06,150.06-70.06-70.06c-6.25-6.25-16.38-6.25-22.63,0l-22.63,22.63c-6.25,6.25-6.25,16.38,0,22.63l104,104c6.25,6.25,16.38,6.25,22.63,0h0Z"/></g></svg>