<svg id="insta_icon" data-name="insta icon" xmlns="http://www.w3.org/2000/svg" width="19" height="19" viewBox="0 0 19 19">
  <path id="Subtraction_5" data-name="Subtraction 5" d="M14.251,19h-9.5A4.756,4.756,0,0,1,0,14.248v-9.5A4.756,4.756,0,0,1,4.749,0h9.5A4.756,4.756,0,0,1,19,4.751v9.5A4.756,4.756,0,0,1,14.251,19ZM9.542,4.708a4.778,4.778,0,0,0-2.482.7,4.755,4.755,0,1,0,3.177-.649A5.234,5.234,0,0,0,9.542,4.708Zm4.475-1.827a1.235,1.235,0,1,0,.18.015A1.059,1.059,0,0,0,14.017,2.881ZM9.542,12.308a2.848,2.848,0,1,1,0-5.7,3.327,3.327,0,0,1,.416.027,2.851,2.851,0,0,1,.863,5.366A2.866,2.866,0,0,1,9.542,12.308Z" fill="#fff"/>
</svg>
