<svg id="linkedin_icon" data-name="linkedin icon" xmlns="http://www.w3.org/2000/svg" width="19.345" height="19.345" viewBox="0 0 19.345 19.345">
  <path id="Icon_awesome-linkedin" data-name="Icon awesome-linkedin" d="M17.963,2.25H1.377A1.388,1.388,0,0,0,0,3.645V20.2a1.388,1.388,0,0,0,1.377,1.395H17.963A1.391,1.391,0,0,0,19.345,20.2V3.645A1.391,1.391,0,0,0,17.963,2.25ZM5.847,18.831H2.979V9.6H5.851v9.232ZM4.413,8.338A1.662,1.662,0,1,1,6.075,6.676,1.663,1.663,0,0,1,4.413,8.338ZM16.594,18.831H13.727V14.34c0-1.071-.022-2.448-1.49-2.448-1.494,0-1.723,1.166-1.723,2.371v4.568H7.647V9.6H10.4V10.86h.039a3.02,3.02,0,0,1,2.716-1.49c2.9,0,3.441,1.913,3.441,4.4Z" transform="translate(0 -2.25)" fill="#fff"/>
</svg>
